<svg xmlns="http://www.w3.org/2000/svg" xmlns:xlink="http://www.w3.org/1999/xlink" width="500" zoomAndPan="magnify" viewBox="0 0 375 374.999991" height="500" preserveAspectRatio="xMidYMid meet" version="1.0"><defs><g/><clipPath id="c598ddc86e"><path d="M 166 164 L 209 164 L 209 205.867188 L 166 205.867188 Z M 166 164 " clip-rule="nonzero"/></clipPath><clipPath id="184af33994"><path d="M 186 138.367188 L 187 138.367188 L 187 164 L 186 164 Z M 186 138.367188 " clip-rule="nonzero"/></clipPath><clipPath id="5324ffe085"><path d="M 188 138.367188 L 192 138.367188 L 192 164 L 188 164 Z M 188 138.367188 " clip-rule="nonzero"/></clipPath><clipPath id="413946f686"><path d="M 182 138.367188 L 186 138.367188 L 186 164 L 182 164 Z M 182 138.367188 " clip-rule="nonzero"/></clipPath><clipPath id="b546196bed"><path d="M 209 185 L 296.304688 185 L 296.304688 187 L 209 187 Z M 209 185 " clip-rule="nonzero"/></clipPath><clipPath id="ab7e1729c9"><path d="M 78.804688 185 L 166 185 L 166 187 L 78.804688 187 Z M 78.804688 185 " clip-rule="nonzero"/></clipPath></defs><g clip-path="url(#c598ddc86e)"><path fill="#ffffff" d="M 187.566406 205.867188 C 176.183594 205.867188 166.921875 196.597656 166.921875 185.199219 C 166.921875 173.800781 176.183594 164.527344 187.566406 164.527344 C 187.714844 164.527344 187.859375 164.527344 188.007812 164.53125 L 188.90625 164.550781 L 188.042969 164.804688 C 181.257812 166.789062 176.515625 173.125 176.515625 180.210938 C 176.515625 189.0625 183.710938 196.261719 192.550781 196.261719 C 199.625 196.261719 205.953125 191.515625 207.9375 184.722656 L 208.1875 183.867188 L 208.207031 184.757812 C 208.210938 184.902344 208.214844 185.050781 208.214844 185.199219 C 208.214844 196.597656 198.953125 205.867188 187.566406 205.867188 Z M 187.128906 164.808594 C 176.097656 165.039062 167.199219 174.097656 167.199219 185.199219 C 167.199219 196.441406 176.335938 205.59375 187.566406 205.59375 C 198.65625 205.59375 207.703125 196.679688 207.933594 185.632812 C 205.660156 192.097656 199.453125 196.539062 192.550781 196.539062 C 183.558594 196.539062 176.242188 189.214844 176.242188 180.210938 C 176.242188 173.296875 180.675781 167.085938 187.128906 164.808594 Z M 187.128906 164.808594 " fill-opacity="1" fill-rule="nonzero"/></g><path fill="#ffffff" d="M 203.597656 170.335938 L 203.875 171.300781 C 203.992188 171.707031 204.308594 172.023438 204.710938 172.140625 L 205.679688 172.417969 L 204.710938 172.695312 C 204.308594 172.8125 203.992188 173.128906 203.875 173.535156 L 203.597656 174.503906 L 203.320312 173.535156 C 203.203125 173.128906 202.886719 172.8125 202.480469 172.695312 L 201.515625 172.417969 L 202.480469 172.140625 C 202.886719 172.023438 203.203125 171.707031 203.320312 171.300781 Z M 203.597656 170.335938 " fill-opacity="1" fill-rule="nonzero"/><path fill="#ffffff" d="M 196.972656 187.960938 L 197.25 188.929688 C 197.367188 189.335938 197.683594 189.652344 198.085938 189.769531 L 199.054688 190.046875 L 198.085938 190.324219 C 197.683594 190.441406 197.367188 190.757812 197.25 191.164062 L 196.972656 192.128906 L 196.695312 191.164062 C 196.578125 190.757812 196.261719 190.441406 195.855469 190.324219 L 194.890625 190.046875 L 195.855469 189.769531 C 196.261719 189.652344 196.578125 189.335938 196.695312 188.929688 Z M 196.972656 187.960938 " fill-opacity="1" fill-rule="nonzero"/><path fill="#ffffff" d="M 216.835938 161.644531 L 217.078125 162.492188 C 217.179688 162.851562 217.457031 163.128906 217.8125 163.230469 L 218.664062 163.476562 L 217.8125 163.71875 C 217.457031 163.820312 217.179688 164.101562 217.078125 164.457031 L 216.835938 165.304688 L 216.589844 164.457031 C 216.488281 164.101562 216.210938 163.820312 215.855469 163.71875 L 215.003906 163.476562 L 215.855469 163.230469 C 216.210938 163.128906 216.488281 162.851562 216.589844 162.492188 Z M 216.835938 161.644531 " fill-opacity="1" fill-rule="nonzero"/><path fill="#ffffff" d="M 183.96875 174.855469 L 184.210938 175.707031 C 184.3125 176.0625 184.59375 176.34375 184.949219 176.445312 L 185.796875 176.6875 L 184.949219 176.933594 C 184.59375 177.035156 184.3125 177.3125 184.210938 177.667969 L 183.96875 178.519531 L 183.726562 177.667969 C 183.621094 177.3125 183.34375 177.035156 182.988281 176.933594 L 182.140625 176.6875 L 182.988281 176.445312 C 183.34375 176.34375 183.621094 176.0625 183.726562 175.707031 Z M 183.96875 174.855469 " fill-opacity="1" fill-rule="nonzero"/><path fill="#ffffff" d="M 218.917969 140.765625 L 219.316406 142.167969 C 219.484375 142.757812 219.945312 143.214844 220.53125 143.382812 L 221.933594 143.785156 L 220.53125 144.1875 C 219.945312 144.355469 219.484375 144.816406 219.316406 145.402344 L 218.917969 146.804688 L 218.515625 145.402344 C 218.347656 144.816406 217.886719 144.355469 217.300781 144.1875 L 215.898438 143.785156 L 217.300781 143.382812 C 217.886719 143.214844 218.347656 142.757812 218.515625 142.167969 Z M 218.917969 140.765625 " fill-opacity="1" fill-rule="nonzero"/><path fill="#ffffff" d="M 196.300781 175.445312 C 196.300781 175.566406 196.257812 175.667969 196.171875 175.753906 C 196.085938 175.839844 195.984375 175.882812 195.863281 175.882812 C 195.742188 175.882812 195.640625 175.839844 195.554688 175.753906 C 195.46875 175.667969 195.425781 175.566406 195.425781 175.445312 C 195.425781 175.324219 195.46875 175.222656 195.554688 175.136719 C 195.640625 175.050781 195.742188 175.007812 195.863281 175.007812 C 195.984375 175.007812 196.085938 175.050781 196.171875 175.136719 C 196.257812 175.222656 196.300781 175.324219 196.300781 175.445312 Z M 196.300781 175.445312 " fill-opacity="1" fill-rule="nonzero"/><path fill="#ffffff" d="M 204.035156 180.328125 C 204.035156 180.449219 203.992188 180.550781 203.90625 180.636719 C 203.820312 180.722656 203.71875 180.765625 203.597656 180.765625 C 203.476562 180.765625 203.375 180.722656 203.289062 180.636719 C 203.203125 180.550781 203.160156 180.449219 203.160156 180.328125 C 203.160156 180.207031 203.203125 180.101562 203.289062 180.019531 C 203.375 179.933594 203.476562 179.890625 203.597656 179.890625 C 203.71875 179.890625 203.820312 179.933594 203.90625 180.019531 C 203.992188 180.101562 204.035156 180.207031 204.035156 180.328125 Z M 204.035156 180.328125 " fill-opacity="1" fill-rule="nonzero"/><path fill="#ffffff" d="M 228.765625 161.644531 C 228.765625 161.765625 228.722656 161.867188 228.636719 161.953125 C 228.550781 162.039062 228.449219 162.082031 228.328125 162.082031 C 228.207031 162.082031 228.105469 162.039062 228.019531 161.953125 C 227.933594 161.867188 227.890625 161.765625 227.890625 161.644531 C 227.890625 161.523438 227.933594 161.417969 228.019531 161.335938 C 228.105469 161.25 228.207031 161.207031 228.328125 161.207031 C 228.449219 161.207031 228.550781 161.25 228.636719 161.335938 C 228.722656 161.417969 228.765625 161.523438 228.765625 161.644531 Z M 228.765625 161.644531 " fill-opacity="1" fill-rule="nonzero"/><path fill="#ffffff" d="M 182.574219 183.636719 C 182.574219 183.757812 182.53125 183.859375 182.449219 183.945312 C 182.363281 184.03125 182.257812 184.074219 182.140625 184.074219 C 182.019531 184.074219 181.914062 184.03125 181.828125 183.945312 C 181.746094 183.859375 181.703125 183.757812 181.703125 183.636719 C 181.703125 183.515625 181.746094 183.410156 181.828125 183.328125 C 181.914062 183.242188 182.019531 183.199219 182.140625 183.199219 C 182.257812 183.199219 182.363281 183.242188 182.449219 183.328125 C 182.53125 183.410156 182.574219 183.515625 182.574219 183.636719 Z M 182.574219 183.636719 " fill-opacity="1" fill-rule="nonzero"/><path fill="#ffffff" d="M 188.0625 189.136719 C 188.0625 189.257812 188.019531 189.359375 187.933594 189.445312 C 187.851562 189.53125 187.746094 189.574219 187.625 189.574219 C 187.503906 189.574219 187.402344 189.53125 187.316406 189.445312 C 187.230469 189.359375 187.1875 189.257812 187.1875 189.136719 C 187.1875 189.015625 187.230469 188.910156 187.316406 188.828125 C 187.402344 188.742188 187.503906 188.699219 187.625 188.699219 C 187.746094 188.699219 187.851562 188.742188 187.933594 188.828125 C 188.019531 188.910156 188.0625 189.015625 188.0625 189.136719 Z M 188.0625 189.136719 " fill-opacity="1" fill-rule="nonzero"/><path fill="#ffffff" d="M 194.890625 148.636719 C 194.890625 148.757812 194.847656 148.859375 194.761719 148.945312 C 194.675781 149.03125 194.574219 149.074219 194.453125 149.074219 C 194.332031 149.074219 194.230469 149.03125 194.144531 148.945312 C 194.058594 148.859375 194.015625 148.757812 194.015625 148.636719 C 194.015625 148.515625 194.058594 148.414062 194.144531 148.328125 C 194.230469 148.242188 194.332031 148.199219 194.453125 148.199219 C 194.574219 148.199219 194.675781 148.242188 194.761719 148.328125 C 194.847656 148.414062 194.890625 148.515625 194.890625 148.636719 Z M 194.890625 148.636719 " fill-opacity="1" fill-rule="nonzero"/><path fill="#ffffff" d="M 201.953125 161.207031 C 201.953125 161.328125 201.910156 161.429688 201.824219 161.515625 C 201.738281 161.601562 201.636719 161.644531 201.515625 161.644531 C 201.394531 161.644531 201.292969 161.601562 201.207031 161.515625 C 201.121094 161.429688 201.078125 161.328125 201.078125 161.207031 C 201.078125 161.085938 201.121094 160.980469 201.207031 160.898438 C 201.292969 160.8125 201.394531 160.769531 201.515625 160.769531 C 201.636719 160.769531 201.738281 160.8125 201.824219 160.898438 C 201.910156 160.980469 201.953125 161.085938 201.953125 161.207031 Z M 201.953125 161.207031 " fill-opacity="1" fill-rule="nonzero"/><path fill="#ffffff" d="M 226.457031 178.382812 C 226.457031 178.503906 226.417969 178.609375 226.332031 178.691406 C 226.246094 178.777344 226.140625 178.820312 226.023438 178.820312 C 225.902344 178.820312 225.796875 178.777344 225.710938 178.691406 C 225.628906 178.609375 225.585938 178.503906 225.585938 178.382812 C 225.585938 178.261719 225.628906 178.160156 225.710938 178.074219 C 225.796875 177.988281 225.902344 177.945312 226.023438 177.945312 C 226.140625 177.945312 226.246094 177.988281 226.332031 178.074219 C 226.417969 178.160156 226.457031 178.261719 226.457031 178.382812 Z M 226.457031 178.382812 " fill-opacity="1" fill-rule="nonzero"/><path fill="#ffffff" d="M 192.402344 168.304688 C 192.402344 168.425781 192.359375 168.527344 192.273438 168.613281 C 192.1875 168.699219 192.085938 168.742188 191.964844 168.742188 C 191.84375 168.742188 191.742188 168.699219 191.65625 168.613281 C 191.570312 168.527344 191.527344 168.425781 191.527344 168.304688 C 191.527344 168.183594 191.570312 168.082031 191.65625 167.996094 C 191.742188 167.910156 191.84375 167.867188 191.964844 167.867188 C 192.085938 167.867188 192.1875 167.910156 192.273438 167.996094 C 192.359375 168.082031 192.402344 168.183594 192.402344 168.304688 Z M 192.402344 168.304688 " fill-opacity="1" fill-rule="nonzero"/><path fill="#ffffff" d="M 209.691406 156.414062 C 209.691406 156.535156 209.648438 156.640625 209.5625 156.722656 C 209.476562 156.808594 209.375 156.851562 209.253906 156.851562 C 209.132812 156.851562 209.03125 156.808594 208.945312 156.722656 C 208.859375 156.640625 208.816406 156.535156 208.816406 156.414062 C 208.816406 156.292969 208.859375 156.191406 208.945312 156.105469 C 209.03125 156.019531 209.132812 155.976562 209.253906 155.976562 C 209.375 155.976562 209.476562 156.019531 209.5625 156.105469 C 209.648438 156.191406 209.691406 156.292969 209.691406 156.414062 Z M 209.691406 156.414062 " fill-opacity="1" fill-rule="nonzero"/><g clip-path="url(#184af33994)"><path fill="#ffffff" d="M 186.621094 138.367188 L 186.898438 138.367188 L 186.898438 163.527344 L 186.621094 163.527344 Z M 186.621094 138.367188 " fill-opacity="1" fill-rule="nonzero"/></g><g clip-path="url(#5324ffe085)"><path fill="#ffffff" d="M 189.171875 163.5625 L 188.898438 163.535156 L 191.535156 138.515625 L 191.808594 138.542969 Z M 189.171875 163.5625 " fill-opacity="1" fill-rule="nonzero"/></g><path fill="#ffffff" d="M 141.132812 180.542969 L 141.164062 180.265625 L 166.105469 183.34375 L 166.070312 183.617188 Z M 141.132812 180.542969 " fill-opacity="1" fill-rule="nonzero"/><path fill="#ffffff" d="M 141.878906 175.675781 L 141.941406 175.40625 L 166.421875 181.089844 L 166.359375 181.359375 Z M 141.878906 175.675781 " fill-opacity="1" fill-rule="nonzero"/><path fill="#ffffff" d="M 166.878906 179.136719 L 143.132812 170.917969 L 143.21875 170.65625 L 166.96875 178.878906 Z M 166.878906 179.136719 " fill-opacity="1" fill-rule="nonzero"/><path fill="#ffffff" d="M 144.875 166.320312 L 144.992188 166.066406 L 167.746094 176.738281 L 167.628906 176.988281 Z M 144.875 166.320312 " fill-opacity="1" fill-rule="nonzero"/><path fill="#ffffff" d="M 168.601562 174.921875 L 147.089844 161.921875 L 147.230469 161.6875 L 168.746094 174.6875 Z M 168.601562 174.921875 " fill-opacity="1" fill-rule="nonzero"/><path fill="#ffffff" d="M 149.75 157.785156 L 149.917969 157.5625 L 169.949219 172.75 L 169.78125 172.972656 Z M 149.75 157.785156 " fill-opacity="1" fill-rule="nonzero"/><path fill="#ffffff" d="M 171.164062 171.160156 L 152.835938 153.953125 L 153.023438 153.75 L 171.355469 170.960938 Z M 171.164062 171.160156 " fill-opacity="1" fill-rule="nonzero"/><path fill="#ffffff" d="M 156.300781 150.457031 L 156.511719 150.277344 L 172.9375 169.316406 L 172.726562 169.496094 Z M 156.300781 150.457031 " fill-opacity="1" fill-rule="nonzero"/><path fill="#ffffff" d="M 174.457031 168.015625 L 160.117188 147.355469 L 160.34375 147.199219 L 174.683594 167.859375 Z M 174.457031 168.015625 " fill-opacity="1" fill-rule="nonzero"/><path fill="#ffffff" d="M 164.238281 144.671875 L 164.476562 144.539062 L 176.574219 166.59375 L 176.332031 166.726562 Z M 164.238281 144.671875 " fill-opacity="1" fill-rule="nonzero"/><path fill="#ffffff" d="M 168.613281 142.429688 L 168.867188 142.324219 L 178.585938 165.523438 L 178.328125 165.632812 Z M 168.613281 142.429688 " fill-opacity="1" fill-rule="nonzero"/><path fill="#ffffff" d="M 173.203125 140.664062 L 173.46875 140.585938 L 180.699219 164.679688 L 180.433594 164.757812 Z M 173.203125 140.664062 " fill-opacity="1" fill-rule="nonzero"/><path fill="#ffffff" d="M 182.617188 164.105469 L 177.949219 139.382812 L 178.21875 139.332031 L 182.886719 164.050781 Z M 182.617188 164.105469 " fill-opacity="1" fill-rule="nonzero"/><g clip-path="url(#413946f686)"><path fill="#ffffff" d="M 182.804688 138.609375 L 183.078125 138.585938 L 185.132812 163.660156 L 184.855469 163.683594 Z M 182.804688 138.609375 " fill-opacity="1" fill-rule="nonzero"/></g><g clip-path="url(#b546196bed)"><path fill="#ffffff" d="M 209.691406 185.511719 L 296.273438 185.511719 L 296.273438 186.175781 L 209.691406 186.175781 Z M 209.691406 185.511719 " fill-opacity="1" fill-rule="nonzero"/></g><g clip-path="url(#ab7e1729c9)"><path fill="#ffffff" d="M 78.835938 185.511719 L 165.417969 185.511719 L 165.417969 186.175781 L 78.835938 186.175781 Z M 78.835938 185.511719 " fill-opacity="1" fill-rule="nonzero"/></g><g fill="#d4b37b" fill-opacity="1"><g transform="translate(101.293512, 230.568194)"><g><path d="M 10.363281 -4.109375 C 10.210938 -4.257812 9.953125 -4.257812 9.804688 -4.09375 C 9.773438 -4.0625 5.679688 0.0585938 2.960938 -0.964844 C 1.753906 -1.433594 1.238281 -2.839844 1.042969 -4.230469 C 1.3125 -4.894531 1.765625 -5.996094 2.191406 -7.234375 C 2.234375 -7.386719 2.28125 -7.402344 2.460938 -7.417969 C 4.5 -7.566406 6.523438 -7.644531 7.71875 -7.644531 C 7.945312 -7.644531 8.113281 -7.824219 8.113281 -8.035156 C 8.113281 -8.261719 7.945312 -8.429688 7.71875 -8.429688 C 6.570312 -8.429688 4.683594 -8.339844 2.75 -8.230469 C 2.671875 -8.21875 2.539062 -8.261719 2.644531 -8.535156 C 3.367188 -10.605469 3.882812 -12.703125 3.566406 -13.335938 C 3.246094 -13.972656 2.824219 -13.988281 2.613281 -13.941406 C 1.496094 -13.730469 0.679688 -10.832031 0.316406 -8.457031 C 0.285156 -8.246094 0.179688 -8.066406 -0.015625 -8.050781 C -2.386719 -7.871094 -4.335938 -7.734375 -4.367188 -7.734375 C -4.59375 -7.71875 -4.757812 -7.539062 -4.742188 -7.3125 C -4.742188 -7.097656 -4.5625 -6.917969 -4.335938 -6.933594 L -4.304688 -6.933594 C -4.257812 -6.933594 -2.433594 -7.070312 -0.152344 -7.234375 C -0.0742188 -7.25 0 -7.234375 0.0585938 -7.175781 C 0.121094 -7.128906 0.167969 -7.054688 0.167969 -6.976562 C -0.0585938 -3.382812 0.847656 -0.921875 2.671875 -0.226562 C 3.066406 -0.0898438 3.472656 -0.015625 3.898438 -0.015625 C 6.886719 -0.015625 10.210938 -3.382812 10.378906 -3.535156 C 10.453125 -3.609375 10.484375 -3.714844 10.484375 -3.820312 C 10.484375 -3.925781 10.4375 -4.03125 10.363281 -4.109375 Z M 1.117188 -8.488281 C 1.464844 -10.785156 2.160156 -12.597656 2.566406 -13.066406 C 2.613281 -13.097656 2.671875 -13.109375 2.734375 -13.097656 C 2.78125 -13.082031 2.824219 -13.050781 2.855469 -12.992188 C 3.035156 -12.597656 2.523438 -10.679688 1.753906 -8.398438 C 1.722656 -8.261719 1.617188 -8.15625 1.464844 -8.140625 C 1.390625 -8.125 1.3125 -8.125 1.222656 -8.125 C 1.074219 -8.125 1.101562 -8.367188 1.117188 -8.472656 Z M 0.9375 -6.117188 C 0.785156 -6.117188 0.847656 -7.175781 0.980469 -7.324219 C 1.101562 -7.402344 1.253906 -7.417969 1.375 -7.339844 C 1.511719 -7.21875 1.101562 -6.117188 0.9375 -6.117188 Z M 0.9375 -6.117188 "/></g></g></g><g fill="#d4b37b" fill-opacity="1"><g transform="translate(110.938374, 230.568194)"><g><path d="M 11.917969 -3.609375 C 11.765625 -3.777344 11.523438 -3.792969 11.359375 -3.640625 C 11.328125 -3.625 8.21875 -0.90625 5.9375 -1.269531 C 5.257812 -1.375 4.667969 -1.78125 4.335938 -2.386719 C 4.046875 -2.914062 3.519531 -3.246094 2.929688 -3.308594 C 2.191406 -3.351562 1.375 -2.914062 0.511719 -2.007812 C 0.46875 -1.964844 0.394531 -1.949219 0.332031 -1.980469 C 0.273438 -2.007812 0.242188 -2.070312 0.257812 -2.144531 C 0.300781 -2.433594 0.4375 -3.15625 0.5 -3.429688 C 0.5 -3.382812 0.605469 -3.59375 0.605469 -3.609375 C 1.886719 -5.363281 5.726562 -10.921875 4.230469 -12.703125 C 4.03125 -12.976562 3.671875 -13.097656 3.339844 -13.003906 C 3.035156 -12.914062 2.113281 -12.628906 0.695312 -7.582031 C 0.347656 -6.359375 0.03125 -5.046875 -0.226562 -3.804688 L -0.332031 -3.671875 C -0.4375 -3.535156 -0.4375 -3.351562 -0.347656 -3.203125 C -0.574219 -2.085938 -0.726562 -1.058594 -0.800781 -0.273438 C -0.816406 -0.0898438 -0.710938 0.0742188 -0.542969 0.136719 C -0.378906 0.195312 -0.179688 0.136719 -0.0742188 -0.015625 C 1.464844 -2.25 2.445312 -2.539062 2.886719 -2.523438 C 3.203125 -2.492188 3.488281 -2.296875 3.640625 -2.007812 C 4.09375 -1.191406 4.894531 -0.621094 5.832031 -0.484375 C 8.457031 -0.0742188 11.738281 -2.929688 11.886719 -3.050781 C 12.039062 -3.203125 12.054688 -3.445312 11.917969 -3.609375 Z M 3.566406 -12.25 C 3.59375 -12.25 3.609375 -12.203125 3.625 -12.191406 C 4.351562 -11.375 1.34375 -5.300781 0.964844 -5.542969 C 0.605469 -5.769531 2.929688 -12.25 3.566406 -12.25 Z M 3.566406 -12.25 "/></g></g></g><g fill="#d4b37b" fill-opacity="1"><g transform="translate(122.349198, 230.568194)"><g><path d="M 9.789062 -4.078125 C 9.621094 -4.230469 9.378906 -4.230469 9.230469 -4.0625 C 9.167969 -4.019531 4.273438 0.964844 1.027344 -1.40625 C 0.03125 -2.128906 0.996094 -4.019531 1.011719 -4.03125 C 1.101562 -4.230469 1.027344 -4.457031 0.832031 -4.5625 C 0.632812 -4.652344 0.40625 -4.59375 0.300781 -4.394531 C 0.242188 -4.304688 -0.980469 -1.902344 0.558594 -0.769531 C 1.269531 -0.242188 2.144531 0.046875 3.035156 0.03125 C 6.296875 0.03125 9.605469 -3.339844 9.789062 -3.519531 C 9.863281 -3.59375 9.910156 -3.6875 9.910156 -3.792969 C 9.894531 -3.898438 9.863281 -4.003906 9.789062 -4.078125 Z M 0.136719 -5.273438 C 0.195312 -5.273438 0.257812 -5.285156 0.316406 -5.316406 C 0.679688 -5.5 0.996094 -5.738281 1.285156 -6.027344 C 1.433594 -6.191406 1.417969 -6.433594 1.269531 -6.585938 C 1.101562 -6.738281 0.859375 -6.738281 0.710938 -6.570312 C 0.484375 -6.34375 0.226562 -6.164062 -0.0585938 -6.011719 C -0.210938 -5.9375 -0.300781 -5.738281 -0.257812 -5.574219 C -0.210938 -5.390625 -0.046875 -5.273438 0.136719 -5.273438 Z M 0.136719 -5.273438 "/></g></g></g><g fill="#d4b37b" fill-opacity="1"><g transform="translate(131.616714, 230.568194)"><g><path d="M 12.734375 -3.761719 C 12.582031 -3.925781 12.324219 -3.941406 12.175781 -3.792969 C 12.128906 -3.761719 7.777344 0.121094 1.691406 -0.980469 C 0.664062 -1.164062 0.136719 -1.554688 0.136719 -2.128906 C 0.121094 -3.1875 1.765625 -4.726562 2.855469 -4.9375 C 3.1875 -5.046875 3.550781 -4.984375 3.851562 -4.789062 C 4.0625 -4.578125 4.183594 -4.273438 4.183594 -3.957031 C 4.183594 -3.746094 4.351562 -3.566406 4.5625 -3.566406 C 4.789062 -3.566406 4.953125 -3.730469 4.96875 -3.941406 C 4.984375 -4.484375 4.757812 -5.015625 4.367188 -5.390625 C 3.882812 -5.753906 3.277344 -5.875 2.703125 -5.710938 C 1.390625 -5.46875 -0.664062 -3.714844 -0.648438 -2.113281 C -0.648438 -1.539062 -0.363281 -0.542969 1.554688 -0.195312 C 2.324219 -0.0585938 3.113281 0.015625 3.914062 0.015625 C 7.113281 -0.015625 10.226562 -1.148438 12.703125 -3.203125 C 12.777344 -3.277344 12.824219 -3.382812 12.839844 -3.472656 C 12.839844 -3.578125 12.792969 -3.6875 12.734375 -3.761719 Z M 12.734375 -3.761719 "/></g></g></g><g fill="#d4b37b" fill-opacity="1"><g transform="translate(143.706755, 230.568194)"><g><path d="M 11.917969 -3.609375 C 11.765625 -3.777344 11.523438 -3.792969 11.359375 -3.640625 C 11.328125 -3.625 8.21875 -0.90625 5.9375 -1.269531 C 5.257812 -1.375 4.667969 -1.78125 4.335938 -2.386719 C 4.046875 -2.914062 3.519531 -3.246094 2.929688 -3.308594 C 2.191406 -3.351562 1.375 -2.914062 0.511719 -2.007812 C 0.46875 -1.964844 0.394531 -1.949219 0.332031 -1.980469 C 0.273438 -2.007812 0.242188 -2.070312 0.257812 -2.144531 C 0.300781 -2.433594 0.4375 -3.15625 0.5 -3.429688 C 0.5 -3.382812 0.605469 -3.59375 0.605469 -3.609375 C 1.886719 -5.363281 5.726562 -10.921875 4.230469 -12.703125 C 4.03125 -12.976562 3.671875 -13.097656 3.339844 -13.003906 C 3.035156 -12.914062 2.113281 -12.628906 0.695312 -7.582031 C 0.347656 -6.359375 0.03125 -5.046875 -0.226562 -3.804688 L -0.332031 -3.671875 C -0.4375 -3.535156 -0.4375 -3.351562 -0.347656 -3.203125 C -0.574219 -2.085938 -0.726562 -1.058594 -0.800781 -0.273438 C -0.816406 -0.0898438 -0.710938 0.0742188 -0.542969 0.136719 C -0.378906 0.195312 -0.179688 0.136719 -0.0742188 -0.015625 C 1.464844 -2.25 2.445312 -2.539062 2.886719 -2.523438 C 3.203125 -2.492188 3.488281 -2.296875 3.640625 -2.007812 C 4.09375 -1.191406 4.894531 -0.621094 5.832031 -0.484375 C 8.457031 -0.0742188 11.738281 -2.929688 11.886719 -3.050781 C 12.039062 -3.203125 12.054688 -3.445312 11.917969 -3.609375 Z M 3.566406 -12.25 C 3.59375 -12.25 3.609375 -12.203125 3.625 -12.191406 C 4.351562 -11.375 1.34375 -5.300781 0.964844 -5.542969 C 0.605469 -5.769531 2.929688 -12.25 3.566406 -12.25 Z M 3.566406 -12.25 "/></g></g></g><g fill="#d4b37b" fill-opacity="1"><g transform="translate(155.117579, 230.568194)"><g/></g></g><g fill="#d4b37b" fill-opacity="1"><g transform="translate(160.732427, 230.568194)"><g><path d="M 13.203125 -3.761719 C 13.109375 -3.820312 13.019531 -3.867188 12.914062 -3.867188 C 12.808594 -3.851562 12.703125 -3.804688 12.644531 -3.730469 C 12.597656 -3.699219 9.273438 -0.152344 6.390625 -1.3125 C 5.769531 -1.644531 5.273438 -2.144531 4.925781 -2.765625 C 4.804688 -2.960938 4.652344 -3.15625 4.472656 -3.339844 C 4.273438 -3.578125 3.972656 -3.714844 3.65625 -3.730469 C 2.886719 -3.792969 1.949219 -3.277344 0.832031 -2.21875 C 0.800781 -2.191406 0.753906 -2.175781 0.710938 -2.207031 C 0.664062 -2.21875 0.632812 -2.28125 0.648438 -2.324219 L 0.980469 -3.804688 C 1.042969 -4.019531 0.90625 -4.246094 0.695312 -4.289062 C 0.484375 -4.335938 0.273438 -4.199219 0.210938 -3.988281 L -0.542969 -0.679688 C -0.589844 -0.5 -0.5 -0.316406 -0.332031 -0.242188 C -0.167969 -0.152344 0.03125 -0.195312 0.152344 -0.332031 C 2.175781 -2.703125 3.203125 -2.929688 3.566406 -2.945312 C 3.925781 -2.960938 4.152344 -2.492188 4.273438 -2.3125 C 4.699219 -1.570312 5.332031 -0.964844 6.085938 -0.589844 C 9.472656 0.785156 13.066406 -3.035156 13.21875 -3.203125 C 13.367188 -3.351562 13.351562 -3.609375 13.203125 -3.761719 Z M 13.203125 -3.761719 "/></g></g></g><g fill="#d4b37b" fill-opacity="1"><g transform="translate(173.305466, 230.568194)"><g><path d="M 10.511719 -3.972656 C 10.347656 -4.125 10.089844 -4.109375 9.953125 -3.941406 C 8.761719 -2.703125 6.828125 -2.582031 5.5 -3.65625 C 5.179688 -3.882812 4.742188 -3.867188 4.457031 -3.59375 C 4.289062 -3.445312 4.109375 -3.277344 3.925781 -3.082031 C 3.351562 -2.433594 3.246094 -2.976562 3.246094 -3.339844 C 3.246094 -3.65625 3.1875 -3.988281 3.082031 -4.289062 C 3.019531 -4.441406 2.871094 -4.546875 2.703125 -4.546875 C 2.539062 -4.53125 2.402344 -4.441406 2.339844 -4.273438 C 1.917969 -3.097656 1.011719 -1.375 0.378906 -1.253906 C 0.332031 -1.238281 0.210938 -1.222656 0.03125 -1.417969 C -0.0585938 -1.8125 0 -2.234375 0.195312 -2.597656 C 0.648438 -3.820312 1.765625 -4.683594 3.066406 -4.804688 C 3.292969 -4.820312 3.460938 -5.015625 3.445312 -5.226562 C 3.429688 -5.453125 3.234375 -5.617188 3.019531 -5.605469 C 1.40625 -5.453125 0.015625 -4.394531 -0.558594 -2.871094 C -0.816406 -2.207031 -0.964844 -1.328125 -0.558594 -0.890625 C -0.285156 -0.558594 0.121094 -0.40625 0.527344 -0.484375 C 1.285156 -0.632812 1.964844 -1.632812 2.445312 -2.539062 C 2.417969 -2.175781 2.371094 -1.765625 2.3125 -1.34375 C 2.296875 -1.253906 2.265625 -1.179688 2.21875 -1.117188 C 0.453125 1.117188 -1.148438 3.820312 -1.179688 5.527344 C -1.222656 5.980469 -1.058594 6.433594 -0.753906 6.765625 C -0.605469 6.917969 -0.421875 6.992188 -0.226562 6.992188 C -0.0585938 6.992188 0.105469 6.949219 0.242188 6.859375 C 1.238281 6.191406 2.507812 2.3125 3.007812 -0.769531 C 3.019531 -0.832031 3.050781 -0.890625 3.097656 -0.953125 C 3.625 -1.601562 4.183594 -2.21875 4.773438 -2.808594 C 4.910156 -2.945312 5.121094 -2.960938 5.273438 -2.855469 C 6.933594 -1.738281 9.136719 -1.980469 10.527344 -3.414062 C 10.664062 -3.578125 10.664062 -3.820312 10.511719 -3.972656 Z M 0.453125 5.257812 C 0.105469 5.953125 -0.015625 6.253906 -0.195312 6.191406 C -0.378906 6.148438 -0.394531 5.84375 -0.378906 5.542969 C -0.347656 4.378906 1.675781 0.4375 1.964844 0.558594 C 2.25 0.679688 1.027344 4.0625 0.453125 5.257812 Z M 0.453125 5.257812 "/></g></g></g><g fill="#d4b37b" fill-opacity="1"><g transform="translate(183.252201, 230.568194)"><g><path d="M 12.628906 -3.65625 C 12.476562 -3.820312 12.21875 -3.835938 12.054688 -3.6875 C 12.007812 -3.640625 7.523438 0.394531 4.742188 -1.433594 C 3.640625 -2.160156 3.367188 -3.914062 3.367188 -3.925781 C 3.351562 -4.109375 3.21875 -4.246094 3.035156 -4.273438 C 2.871094 -4.289062 2.6875 -4.199219 2.613281 -4.046875 C 1.902344 -2.476562 0.648438 -0.484375 0.300781 -0.710938 C 0.273438 -0.710938 0.210938 -0.769531 0.167969 -0.875 C -0.015625 -1.375 0.046875 -1.917969 0.300781 -2.386719 C 0.875 -3.566406 1.933594 -4.410156 3.203125 -4.726562 C 3.339844 -4.757812 3.445312 -4.863281 3.488281 -5 C 3.535156 -5.136719 3.488281 -5.285156 3.398438 -5.390625 C 3.292969 -5.484375 3.15625 -5.527344 3.019531 -5.5 C 1.511719 -5.136719 0.257812 -4.109375 -0.421875 -2.71875 C -0.785156 -2.039062 -0.832031 -1.222656 -0.542969 -0.511719 C -0.40625 -0.167969 -0.0742188 0.0742188 0.300781 0.0742188 L 0.316406 0.0742188 C 1.058594 0.0585938 1.980469 -0.859375 2.613281 -1.859375 C 2.6875 -1.980469 2.824219 -2.039062 2.960938 -2.023438 C 3.097656 -2.023438 3.21875 -1.949219 3.277344 -1.828125 C 3.535156 -1.40625 3.882812 -1.042969 4.304688 -0.785156 C 7.597656 1.40625 12.386719 -2.914062 12.597656 -3.097656 C 12.671875 -3.171875 12.71875 -3.277344 12.71875 -3.367188 C 12.734375 -3.472656 12.6875 -3.578125 12.628906 -3.65625 Z M 12.628906 -3.65625 "/></g></g></g><g fill="#d4b37b" fill-opacity="1"><g transform="translate(195.447894, 230.568194)"><g><path d="M 16.570312 -3.835938 C 16.402344 -3.972656 16.148438 -3.941406 16.011719 -3.777344 C 15.980469 -3.730469 12.613281 0.378906 9.515625 -1.417969 C 9.109375 -1.707031 8.792969 -2.097656 8.625 -2.554688 C 8.339844 -3.125 7.992188 -3.820312 7.023438 -3.671875 C 6.523438 -3.59375 5.753906 -2.960938 5.105469 -2.234375 C 5.074219 -2.191406 5.015625 -2.175781 4.96875 -2.191406 C 4.925781 -2.207031 4.878906 -2.234375 4.878906 -2.296875 C 4.757812 -2.976562 4.304688 -3.550781 3.671875 -3.820312 C 3.15625 -3.957031 2.324219 -4.109375 0.589844 -2.386719 C 0.5 -2.3125 0.378906 -2.339844 0.394531 -2.460938 C 0.394531 -2.523438 0.695312 -3.746094 0.695312 -3.746094 C 0.738281 -3.957031 0.605469 -4.167969 0.394531 -4.230469 C 0.179688 -4.273438 -0.03125 -4.140625 -0.0898438 -3.925781 L -0.816406 -0.738281 C -0.859375 -0.558594 -0.769531 -0.378906 -0.605469 -0.285156 C -0.421875 -0.210938 -0.226562 -0.257812 -0.121094 -0.40625 C 1.902344 -2.945312 2.898438 -3.1875 3.308594 -3.125 C 3.714844 -3.050781 4.257812 -2.234375 4.199219 -0.921875 C 4.199219 -0.738281 4.304688 -0.574219 4.484375 -0.527344 C 4.667969 -0.46875 4.847656 -0.542969 4.9375 -0.695312 C 5.558594 -1.753906 6.765625 -2.824219 7.144531 -2.886719 C 7.507812 -2.945312 7.613281 -2.808594 7.914062 -2.207031 C 8.140625 -1.601562 8.566406 -1.085938 9.109375 -0.738281 C 9.742188 -0.363281 10.46875 -0.152344 11.207031 -0.152344 C 14.09375 -0.152344 16.507812 -3.113281 16.628906 -3.277344 C 16.765625 -3.445312 16.738281 -3.699219 16.570312 -3.835938 Z M 16.570312 -3.835938 "/></g></g></g><g fill="#d4b37b" fill-opacity="1"><g transform="translate(211.341539, 230.568194)"><g/></g></g><g fill="#d4b37b" fill-opacity="1"><g transform="translate(216.956388, 230.568194)"><g><path d="M 10.363281 -4.109375 C 10.210938 -4.257812 9.953125 -4.257812 9.804688 -4.09375 C 9.773438 -4.0625 5.679688 0.0585938 2.960938 -0.964844 C 1.753906 -1.433594 1.238281 -2.839844 1.042969 -4.230469 C 1.3125 -4.894531 1.765625 -5.996094 2.191406 -7.234375 C 2.234375 -7.386719 2.28125 -7.402344 2.460938 -7.417969 C 4.5 -7.566406 6.523438 -7.644531 7.71875 -7.644531 C 7.945312 -7.644531 8.113281 -7.824219 8.113281 -8.035156 C 8.113281 -8.261719 7.945312 -8.429688 7.71875 -8.429688 C 6.570312 -8.429688 4.683594 -8.339844 2.75 -8.230469 C 2.671875 -8.21875 2.539062 -8.261719 2.644531 -8.535156 C 3.367188 -10.605469 3.882812 -12.703125 3.566406 -13.335938 C 3.246094 -13.972656 2.824219 -13.988281 2.613281 -13.941406 C 1.496094 -13.730469 0.679688 -10.832031 0.316406 -8.457031 C 0.285156 -8.246094 0.179688 -8.066406 -0.015625 -8.050781 C -2.386719 -7.871094 -4.335938 -7.734375 -4.367188 -7.734375 C -4.59375 -7.71875 -4.757812 -7.539062 -4.742188 -7.3125 C -4.742188 -7.097656 -4.5625 -6.917969 -4.335938 -6.933594 L -4.304688 -6.933594 C -4.257812 -6.933594 -2.433594 -7.070312 -0.152344 -7.234375 C -0.0742188 -7.25 0 -7.234375 0.0585938 -7.175781 C 0.121094 -7.128906 0.167969 -7.054688 0.167969 -6.976562 C -0.0585938 -3.382812 0.847656 -0.921875 2.671875 -0.226562 C 3.066406 -0.0898438 3.472656 -0.015625 3.898438 -0.015625 C 6.886719 -0.015625 10.210938 -3.382812 10.378906 -3.535156 C 10.453125 -3.609375 10.484375 -3.714844 10.484375 -3.820312 C 10.484375 -3.925781 10.4375 -4.03125 10.363281 -4.109375 Z M 1.117188 -8.488281 C 1.464844 -10.785156 2.160156 -12.597656 2.566406 -13.066406 C 2.613281 -13.097656 2.671875 -13.109375 2.734375 -13.097656 C 2.78125 -13.082031 2.824219 -13.050781 2.855469 -12.992188 C 3.035156 -12.597656 2.523438 -10.679688 1.753906 -8.398438 C 1.722656 -8.261719 1.617188 -8.15625 1.464844 -8.140625 C 1.390625 -8.125 1.3125 -8.125 1.222656 -8.125 C 1.074219 -8.125 1.101562 -8.367188 1.117188 -8.472656 Z M 0.9375 -6.117188 C 0.785156 -6.117188 0.847656 -7.175781 0.980469 -7.324219 C 1.101562 -7.402344 1.253906 -7.417969 1.375 -7.339844 C 1.511719 -7.21875 1.101562 -6.117188 0.9375 -6.117188 Z M 0.9375 -6.117188 "/></g></g></g><g fill="#d4b37b" fill-opacity="1"><g transform="translate(226.60125, 230.568194)"><g><path d="M 13.019531 -3.972656 C 12.945312 -4.046875 12.855469 -4.09375 12.75 -4.09375 C 12.644531 -4.09375 12.539062 -4.046875 12.460938 -3.972656 C 9.847656 -1.417969 5.210938 -0.875 4.214844 -1.464844 C 3.535156 -1.859375 3.609375 -2.324219 4.09375 -3.261719 C 4.320312 -3.714844 4.578125 -4.246094 4.140625 -4.5625 C 3.730469 -4.863281 3.339844 -4.667969 2.992188 -4.484375 C 2.492188 -4.199219 1.933594 -4.046875 1.34375 -4.046875 C 1.207031 -4.046875 1.085938 -4.289062 1.117188 -4.378906 C 1.964844 -6.238281 1.585938 -6.585938 1.449219 -6.722656 C 1.222656 -6.949219 0.875 -6.933594 0.453125 -6.675781 C -0.242188 -6.179688 -0.542969 -5.285156 -0.300781 -4.457031 C -0.242188 -4.230469 -0.136719 -4.019531 0.015625 -3.835938 C 0 -3.671875 0.0742188 -3.519531 0.226562 -3.445312 C 0.316406 -3.398438 0.421875 -3.398438 0.527344 -3.429688 C 0.785156 -3.308594 1.074219 -3.246094 1.359375 -3.246094 C 1.980469 -3.234375 2.582031 -3.367188 3.125 -3.671875 C 3.339844 -3.777344 3.414062 -3.6875 3.382812 -3.625 C 3.019531 -2.914062 2.371094 -1.617188 3.820312 -0.769531 C 4.335938 -0.527344 4.910156 -0.421875 5.484375 -0.46875 C 7.597656 -0.46875 10.921875 -1.375 13.003906 -3.414062 C 13.082031 -3.472656 13.125 -3.578125 13.125 -3.6875 C 13.140625 -3.792969 13.097656 -3.898438 13.019531 -3.972656 Z M 0.4375 -4.804688 C 0.347656 -5.242188 0.5 -5.695312 0.847656 -5.980469 C 0.738281 -5.574219 0.605469 -5.179688 0.4375 -4.789062 Z M 0.4375 -4.804688 "/></g></g></g><g fill="#d4b37b" fill-opacity="1"><g transform="translate(238.978069, 230.568194)"><g><path d="M 12.628906 -3.65625 C 12.476562 -3.820312 12.21875 -3.835938 12.054688 -3.6875 C 12.007812 -3.640625 7.523438 0.394531 4.742188 -1.433594 C 3.640625 -2.160156 3.367188 -3.914062 3.367188 -3.925781 C 3.351562 -4.109375 3.21875 -4.246094 3.035156 -4.273438 C 2.871094 -4.289062 2.6875 -4.199219 2.613281 -4.046875 C 1.902344 -2.476562 0.648438 -0.484375 0.300781 -0.710938 C 0.273438 -0.710938 0.210938 -0.769531 0.167969 -0.875 C -0.015625 -1.375 0.046875 -1.917969 0.300781 -2.386719 C 0.875 -3.566406 1.933594 -4.410156 3.203125 -4.726562 C 3.339844 -4.757812 3.445312 -4.863281 3.488281 -5 C 3.535156 -5.136719 3.488281 -5.285156 3.398438 -5.390625 C 3.292969 -5.484375 3.15625 -5.527344 3.019531 -5.5 C 1.511719 -5.136719 0.257812 -4.109375 -0.421875 -2.71875 C -0.785156 -2.039062 -0.832031 -1.222656 -0.542969 -0.511719 C -0.40625 -0.167969 -0.0742188 0.0742188 0.300781 0.0742188 L 0.316406 0.0742188 C 1.058594 0.0585938 1.980469 -0.859375 2.613281 -1.859375 C 2.6875 -1.980469 2.824219 -2.039062 2.960938 -2.023438 C 3.097656 -2.023438 3.21875 -1.949219 3.277344 -1.828125 C 3.535156 -1.40625 3.882812 -1.042969 4.304688 -0.785156 C 7.597656 1.40625 12.386719 -2.914062 12.597656 -3.097656 C 12.671875 -3.171875 12.71875 -3.277344 12.71875 -3.367188 C 12.734375 -3.472656 12.6875 -3.578125 12.628906 -3.65625 Z M 12.628906 -3.65625 "/></g></g></g><g fill="#d4b37b" fill-opacity="1"><g transform="translate(251.173762, 230.568194)"><g><path d="M 13.203125 -3.761719 C 13.109375 -3.820312 13.019531 -3.867188 12.914062 -3.867188 C 12.808594 -3.851562 12.703125 -3.804688 12.644531 -3.730469 C 12.597656 -3.699219 9.273438 -0.152344 6.390625 -1.3125 C 5.769531 -1.644531 5.273438 -2.144531 4.925781 -2.765625 C 4.804688 -2.960938 4.652344 -3.15625 4.472656 -3.339844 C 4.273438 -3.578125 3.972656 -3.714844 3.65625 -3.730469 C 2.886719 -3.792969 1.949219 -3.277344 0.832031 -2.21875 C 0.800781 -2.191406 0.753906 -2.175781 0.710938 -2.207031 C 0.664062 -2.21875 0.632812 -2.28125 0.648438 -2.324219 L 0.980469 -3.804688 C 1.042969 -4.019531 0.90625 -4.246094 0.695312 -4.289062 C 0.484375 -4.335938 0.273438 -4.199219 0.210938 -3.988281 L -0.542969 -0.679688 C -0.589844 -0.5 -0.5 -0.316406 -0.332031 -0.242188 C -0.167969 -0.152344 0.03125 -0.195312 0.152344 -0.332031 C 2.175781 -2.703125 3.203125 -2.929688 3.566406 -2.945312 C 3.925781 -2.960938 4.152344 -2.492188 4.273438 -2.3125 C 4.699219 -1.570312 5.332031 -0.964844 6.085938 -0.589844 C 9.472656 0.785156 13.066406 -3.035156 13.21875 -3.203125 C 13.367188 -3.351562 13.351562 -3.609375 13.203125 -3.761719 Z M 13.203125 -3.761719 "/></g></g></g><g fill="#d4b37b" fill-opacity="1"><g transform="translate(263.746802, 230.568194)"><g><path d="M 10.511719 -3.972656 C 10.347656 -4.125 10.089844 -4.109375 9.953125 -3.941406 C 8.761719 -2.703125 6.828125 -2.582031 5.5 -3.65625 C 5.179688 -3.882812 4.742188 -3.867188 4.457031 -3.59375 C 4.289062 -3.445312 4.109375 -3.277344 3.925781 -3.082031 C 3.351562 -2.433594 3.246094 -2.976562 3.246094 -3.339844 C 3.246094 -3.65625 3.1875 -3.988281 3.082031 -4.289062 C 3.019531 -4.441406 2.871094 -4.546875 2.703125 -4.546875 C 2.539062 -4.53125 2.402344 -4.441406 2.339844 -4.273438 C 1.917969 -3.097656 1.011719 -1.375 0.378906 -1.253906 C 0.332031 -1.238281 0.210938 -1.222656 0.03125 -1.417969 C -0.0585938 -1.8125 0 -2.234375 0.195312 -2.597656 C 0.648438 -3.820312 1.765625 -4.683594 3.066406 -4.804688 C 3.292969 -4.820312 3.460938 -5.015625 3.445312 -5.226562 C 3.429688 -5.453125 3.234375 -5.617188 3.019531 -5.605469 C 1.40625 -5.453125 0.015625 -4.394531 -0.558594 -2.871094 C -0.816406 -2.207031 -0.964844 -1.328125 -0.558594 -0.890625 C -0.285156 -0.558594 0.121094 -0.40625 0.527344 -0.484375 C 1.285156 -0.632812 1.964844 -1.632812 2.445312 -2.539062 C 2.417969 -2.175781 2.371094 -1.765625 2.3125 -1.34375 C 2.296875 -1.253906 2.265625 -1.179688 2.21875 -1.117188 C 0.453125 1.117188 -1.148438 3.820312 -1.179688 5.527344 C -1.222656 5.980469 -1.058594 6.433594 -0.753906 6.765625 C -0.605469 6.917969 -0.421875 6.992188 -0.226562 6.992188 C -0.0585938 6.992188 0.105469 6.949219 0.242188 6.859375 C 1.238281 6.191406 2.507812 2.3125 3.007812 -0.769531 C 3.019531 -0.832031 3.050781 -0.890625 3.097656 -0.953125 C 3.625 -1.601562 4.183594 -2.21875 4.773438 -2.808594 C 4.910156 -2.945312 5.121094 -2.960938 5.273438 -2.855469 C 6.933594 -1.738281 9.136719 -1.980469 10.527344 -3.414062 C 10.664062 -3.578125 10.664062 -3.820312 10.511719 -3.972656 Z M 0.453125 5.257812 C 0.105469 5.953125 -0.015625 6.253906 -0.195312 6.191406 C -0.378906 6.148438 -0.394531 5.84375 -0.378906 5.542969 C -0.347656 4.378906 1.675781 0.4375 1.964844 0.558594 C 2.25 0.679688 1.027344 4.0625 0.453125 5.257812 Z M 0.453125 5.257812 "/></g></g></g></svg>