<svg xmlns="http://www.w3.org/2000/svg" xmlns:xlink="http://www.w3.org/1999/xlink" width="250" zoomAndPan="magnify" viewBox="0 0 187.5 112.499997" height="150" preserveAspectRatio="xMidYMid meet" version="1.0"><defs><g/></defs><g fill="#d19c6c" fill-opacity="1"><g transform="translate(60.22809, 57.499379)"><g><path d="M 4.027344 -1.597656 C 3.96875 -1.65625 3.871094 -1.65625 3.8125 -1.589844 C 3.800781 -1.578125 2.207031 0.0234375 1.152344 -0.375 C 0.679688 -0.558594 0.480469 -1.105469 0.40625 -1.644531 C 0.511719 -1.902344 0.6875 -2.332031 0.851562 -2.8125 C 0.867188 -2.871094 0.886719 -2.878906 0.957031 -2.882812 C 1.75 -2.941406 2.535156 -2.972656 3 -2.972656 C 3.089844 -2.972656 3.152344 -3.042969 3.152344 -3.125 C 3.152344 -3.210938 3.089844 -3.277344 3 -3.277344 C 2.554688 -3.277344 1.820312 -3.242188 1.070312 -3.199219 C 1.039062 -3.195312 0.988281 -3.210938 1.027344 -3.316406 C 1.308594 -4.121094 1.507812 -4.9375 1.386719 -5.183594 C 1.261719 -5.433594 1.097656 -5.4375 1.015625 -5.421875 C 0.582031 -5.339844 0.265625 -4.210938 0.125 -3.289062 C 0.113281 -3.207031 0.0703125 -3.136719 -0.0078125 -3.128906 C -0.929688 -3.058594 -1.683594 -3.007812 -1.695312 -3.007812 C -1.785156 -3 -1.851562 -2.929688 -1.84375 -2.84375 C -1.84375 -2.761719 -1.773438 -2.691406 -1.683594 -2.695312 L -1.671875 -2.695312 C -1.65625 -2.695312 -0.945312 -2.75 -0.0585938 -2.8125 C -0.03125 -2.820312 0 -2.8125 0.0234375 -2.789062 C 0.046875 -2.773438 0.0664062 -2.742188 0.0664062 -2.714844 C -0.0234375 -1.316406 0.328125 -0.359375 1.039062 -0.0898438 C 1.191406 -0.0351562 1.351562 -0.0078125 1.515625 -0.0078125 C 2.679688 -0.0078125 3.96875 -1.316406 4.035156 -1.375 C 4.0625 -1.402344 4.074219 -1.445312 4.074219 -1.484375 C 4.074219 -1.527344 4.058594 -1.566406 4.027344 -1.597656 Z M 0.433594 -3.300781 C 0.570312 -4.191406 0.839844 -4.898438 1 -5.078125 C 1.015625 -5.089844 1.039062 -5.097656 1.0625 -5.089844 C 1.082031 -5.085938 1.097656 -5.074219 1.109375 -5.050781 C 1.179688 -4.898438 0.980469 -4.152344 0.679688 -3.265625 C 0.667969 -3.210938 0.628906 -3.171875 0.570312 -3.164062 C 0.539062 -3.160156 0.511719 -3.160156 0.476562 -3.160156 C 0.417969 -3.160156 0.429688 -3.253906 0.433594 -3.292969 Z M 0.363281 -2.378906 C 0.304688 -2.378906 0.328125 -2.789062 0.382812 -2.847656 C 0.429688 -2.878906 0.488281 -2.882812 0.535156 -2.855469 C 0.585938 -2.808594 0.429688 -2.378906 0.363281 -2.378906 Z M 0.363281 -2.378906 "/></g></g></g><g fill="#d19c6c" fill-opacity="1"><g transform="translate(63.978672, 57.499379)"><g><path d="M 4.632812 -1.402344 C 4.574219 -1.46875 4.480469 -1.472656 4.417969 -1.414062 C 4.40625 -1.410156 3.195312 -0.351562 2.308594 -0.492188 C 2.042969 -0.535156 1.816406 -0.691406 1.683594 -0.929688 C 1.574219 -1.132812 1.367188 -1.261719 1.140625 -1.285156 C 0.851562 -1.304688 0.535156 -1.132812 0.199219 -0.78125 C 0.183594 -0.761719 0.152344 -0.757812 0.128906 -0.769531 C 0.105469 -0.78125 0.09375 -0.804688 0.101562 -0.832031 C 0.117188 -0.945312 0.171875 -1.226562 0.195312 -1.332031 C 0.195312 -1.316406 0.234375 -1.398438 0.234375 -1.402344 C 0.734375 -2.085938 2.226562 -4.246094 1.644531 -4.9375 C 1.566406 -5.042969 1.425781 -5.089844 1.296875 -5.054688 C 1.179688 -5.019531 0.820312 -4.910156 0.269531 -2.949219 C 0.136719 -2.472656 0.0117188 -1.960938 -0.0898438 -1.480469 L -0.128906 -1.425781 C -0.171875 -1.375 -0.171875 -1.304688 -0.136719 -1.246094 C -0.222656 -0.808594 -0.28125 -0.410156 -0.3125 -0.105469 C -0.316406 -0.0351562 -0.277344 0.03125 -0.210938 0.0546875 C -0.148438 0.078125 -0.0703125 0.0546875 -0.03125 -0.0078125 C 0.570312 -0.875 0.953125 -0.988281 1.121094 -0.980469 C 1.246094 -0.96875 1.355469 -0.894531 1.414062 -0.78125 C 1.589844 -0.464844 1.902344 -0.242188 2.265625 -0.1875 C 3.289062 -0.03125 4.5625 -1.140625 4.621094 -1.1875 C 4.679688 -1.246094 4.6875 -1.339844 4.632812 -1.402344 Z M 1.386719 -4.761719 C 1.398438 -4.761719 1.402344 -4.746094 1.410156 -4.738281 C 1.691406 -4.421875 0.523438 -2.0625 0.375 -2.15625 C 0.234375 -2.242188 1.140625 -4.761719 1.386719 -4.761719 Z M 1.386719 -4.761719 "/></g></g></g><g fill="#d19c6c" fill-opacity="1"><g transform="translate(68.415981, 57.499379)"><g><path d="M 3.804688 -1.585938 C 3.742188 -1.644531 3.648438 -1.644531 3.589844 -1.578125 C 3.566406 -1.5625 1.660156 0.375 0.398438 -0.546875 C 0.0117188 -0.828125 0.386719 -1.5625 0.394531 -1.566406 C 0.429688 -1.644531 0.398438 -1.730469 0.324219 -1.773438 C 0.246094 -1.808594 0.160156 -1.785156 0.117188 -1.707031 C 0.09375 -1.671875 -0.382812 -0.738281 0.21875 -0.300781 C 0.492188 -0.09375 0.832031 0.0195312 1.179688 0.0117188 C 2.449219 0.0117188 3.734375 -1.296875 3.804688 -1.367188 C 3.835938 -1.398438 3.851562 -1.433594 3.851562 -1.472656 C 3.847656 -1.515625 3.835938 -1.554688 3.804688 -1.585938 Z M 0.0546875 -2.050781 C 0.078125 -2.050781 0.101562 -2.054688 0.125 -2.066406 C 0.265625 -2.136719 0.386719 -2.230469 0.5 -2.34375 C 0.558594 -2.40625 0.550781 -2.5 0.492188 -2.558594 C 0.429688 -2.621094 0.335938 -2.621094 0.277344 -2.554688 C 0.1875 -2.464844 0.0898438 -2.394531 -0.0234375 -2.335938 C -0.0820312 -2.308594 -0.117188 -2.230469 -0.101562 -2.167969 C -0.0820312 -2.097656 -0.0195312 -2.050781 0.0546875 -2.050781 Z M 0.0546875 -2.050781 "/></g></g></g><g fill="#d19c6c" fill-opacity="1"><g transform="translate(72.019826, 57.499379)"><g><path d="M 4.949219 -1.460938 C 4.890625 -1.527344 4.792969 -1.53125 4.734375 -1.472656 C 4.714844 -1.460938 3.023438 0.046875 0.65625 -0.382812 C 0.257812 -0.453125 0.0546875 -0.605469 0.0546875 -0.828125 C 0.046875 -1.238281 0.6875 -1.839844 1.109375 -1.921875 C 1.238281 -1.960938 1.378906 -1.9375 1.496094 -1.863281 C 1.578125 -1.78125 1.625 -1.660156 1.625 -1.539062 C 1.625 -1.457031 1.691406 -1.386719 1.773438 -1.386719 C 1.863281 -1.386719 1.925781 -1.449219 1.933594 -1.53125 C 1.9375 -1.746094 1.851562 -1.949219 1.695312 -2.097656 C 1.507812 -2.238281 1.273438 -2.285156 1.050781 -2.21875 C 0.539062 -2.125 -0.257812 -1.445312 -0.253906 -0.820312 C -0.253906 -0.597656 -0.140625 -0.210938 0.605469 -0.078125 C 0.90625 -0.0234375 1.210938 0.0078125 1.519531 0.0078125 C 2.765625 -0.0078125 3.976562 -0.445312 4.9375 -1.246094 C 4.96875 -1.273438 4.984375 -1.316406 4.992188 -1.351562 C 4.992188 -1.390625 4.972656 -1.433594 4.949219 -1.460938 Z M 4.949219 -1.460938 "/></g></g></g><g fill="#d19c6c" fill-opacity="1"><g transform="translate(76.721259, 57.499379)"><g><path d="M 4.632812 -1.402344 C 4.574219 -1.46875 4.480469 -1.472656 4.417969 -1.414062 C 4.40625 -1.410156 3.195312 -0.351562 2.308594 -0.492188 C 2.042969 -0.535156 1.816406 -0.691406 1.683594 -0.929688 C 1.574219 -1.132812 1.367188 -1.261719 1.140625 -1.285156 C 0.851562 -1.304688 0.535156 -1.132812 0.199219 -0.78125 C 0.183594 -0.761719 0.152344 -0.757812 0.128906 -0.769531 C 0.105469 -0.78125 0.09375 -0.804688 0.101562 -0.832031 C 0.117188 -0.945312 0.171875 -1.226562 0.195312 -1.332031 C 0.195312 -1.316406 0.234375 -1.398438 0.234375 -1.402344 C 0.734375 -2.085938 2.226562 -4.246094 1.644531 -4.9375 C 1.566406 -5.042969 1.425781 -5.089844 1.296875 -5.054688 C 1.179688 -5.019531 0.820312 -4.910156 0.269531 -2.949219 C 0.136719 -2.472656 0.0117188 -1.960938 -0.0898438 -1.480469 L -0.128906 -1.425781 C -0.171875 -1.375 -0.171875 -1.304688 -0.136719 -1.246094 C -0.222656 -0.808594 -0.28125 -0.410156 -0.3125 -0.105469 C -0.316406 -0.0351562 -0.277344 0.03125 -0.210938 0.0546875 C -0.148438 0.078125 -0.0703125 0.0546875 -0.03125 -0.0078125 C 0.570312 -0.875 0.953125 -0.988281 1.121094 -0.980469 C 1.246094 -0.96875 1.355469 -0.894531 1.414062 -0.78125 C 1.589844 -0.464844 1.902344 -0.242188 2.265625 -0.1875 C 3.289062 -0.03125 4.5625 -1.140625 4.621094 -1.1875 C 4.679688 -1.246094 4.6875 -1.339844 4.632812 -1.402344 Z M 1.386719 -4.761719 C 1.398438 -4.761719 1.402344 -4.746094 1.410156 -4.738281 C 1.691406 -4.421875 0.523438 -2.0625 0.375 -2.15625 C 0.234375 -2.242188 1.140625 -4.761719 1.386719 -4.761719 Z M 1.386719 -4.761719 "/></g></g></g><g fill="#d19c6c" fill-opacity="1"><g transform="translate(81.158568, 57.499379)"><g/></g></g><g fill="#d19c6c" fill-opacity="1"><g transform="translate(83.342006, 57.499379)"><g><path d="M 5.132812 -1.460938 C 5.097656 -1.484375 5.0625 -1.503906 5.019531 -1.503906 C 4.980469 -1.496094 4.9375 -1.480469 4.914062 -1.449219 C 4.898438 -1.4375 3.605469 -0.0585938 2.484375 -0.511719 C 2.242188 -0.640625 2.050781 -0.832031 1.914062 -1.074219 C 1.867188 -1.152344 1.808594 -1.226562 1.738281 -1.296875 C 1.660156 -1.390625 1.542969 -1.445312 1.421875 -1.449219 C 1.121094 -1.472656 0.757812 -1.273438 0.324219 -0.863281 C 0.3125 -0.851562 0.292969 -0.84375 0.277344 -0.855469 C 0.257812 -0.863281 0.246094 -0.886719 0.253906 -0.90625 L 0.382812 -1.480469 C 0.40625 -1.5625 0.351562 -1.648438 0.269531 -1.667969 C 0.1875 -1.683594 0.105469 -1.632812 0.0820312 -1.550781 L -0.210938 -0.265625 C -0.230469 -0.195312 -0.195312 -0.125 -0.128906 -0.09375 C -0.0664062 -0.0585938 0.0117188 -0.078125 0.0585938 -0.128906 C 0.84375 -1.050781 1.246094 -1.140625 1.386719 -1.144531 C 1.527344 -1.152344 1.613281 -0.96875 1.660156 -0.898438 C 1.828125 -0.609375 2.074219 -0.375 2.367188 -0.230469 C 3.683594 0.304688 5.078125 -1.179688 5.136719 -1.246094 C 5.195312 -1.304688 5.191406 -1.402344 5.132812 -1.460938 Z M 5.132812 -1.460938 "/></g></g></g><g fill="#d19c6c" fill-opacity="1"><g transform="translate(88.231264, 57.499379)"><g><path d="M 4.085938 -1.542969 C 4.023438 -1.601562 3.921875 -1.597656 3.871094 -1.53125 C 3.40625 -1.050781 2.65625 -1.003906 2.136719 -1.421875 C 2.015625 -1.507812 1.84375 -1.503906 1.730469 -1.398438 C 1.667969 -1.339844 1.597656 -1.273438 1.527344 -1.199219 C 1.304688 -0.945312 1.261719 -1.15625 1.261719 -1.296875 C 1.261719 -1.421875 1.238281 -1.550781 1.199219 -1.667969 C 1.175781 -1.726562 1.117188 -1.769531 1.050781 -1.769531 C 0.988281 -1.761719 0.933594 -1.726562 0.910156 -1.660156 C 0.746094 -1.203125 0.394531 -0.535156 0.148438 -0.488281 C 0.128906 -0.480469 0.0820312 -0.476562 0.0117188 -0.550781 C -0.0234375 -0.703125 0 -0.867188 0.078125 -1.011719 C 0.253906 -1.484375 0.6875 -1.820312 1.191406 -1.867188 C 1.28125 -1.875 1.34375 -1.949219 1.339844 -2.03125 C 1.332031 -2.121094 1.257812 -2.183594 1.175781 -2.179688 C 0.546875 -2.121094 0.0078125 -1.707031 -0.21875 -1.117188 C -0.316406 -0.855469 -0.375 -0.515625 -0.21875 -0.347656 C -0.113281 -0.21875 0.046875 -0.160156 0.207031 -0.1875 C 0.5 -0.246094 0.761719 -0.632812 0.953125 -0.988281 C 0.941406 -0.84375 0.921875 -0.6875 0.898438 -0.523438 C 0.894531 -0.488281 0.882812 -0.457031 0.863281 -0.433594 C 0.175781 0.433594 -0.445312 1.484375 -0.457031 2.148438 C -0.476562 2.324219 -0.410156 2.5 -0.292969 2.632812 C -0.234375 2.691406 -0.164062 2.71875 -0.0898438 2.71875 C -0.0234375 2.71875 0.0429688 2.703125 0.09375 2.667969 C 0.480469 2.40625 0.976562 0.898438 1.167969 -0.300781 C 1.175781 -0.324219 1.1875 -0.347656 1.203125 -0.371094 C 1.410156 -0.621094 1.625 -0.863281 1.855469 -1.09375 C 1.910156 -1.144531 1.992188 -1.152344 2.050781 -1.109375 C 2.695312 -0.675781 3.554688 -0.769531 4.09375 -1.328125 C 4.144531 -1.390625 4.144531 -1.484375 4.085938 -1.542969 Z M 0.175781 2.042969 C 0.0429688 2.3125 -0.0078125 2.429688 -0.078125 2.40625 C -0.148438 2.390625 -0.152344 2.273438 -0.148438 2.15625 C -0.136719 1.703125 0.652344 0.171875 0.761719 0.21875 C 0.875 0.265625 0.398438 1.578125 0.175781 2.042969 Z M 0.175781 2.042969 "/></g></g></g><g fill="#d19c6c" fill-opacity="1"><g transform="translate(92.099237, 57.499379)"><g><path d="M 4.910156 -1.421875 C 4.851562 -1.484375 4.75 -1.492188 4.6875 -1.433594 C 4.667969 -1.414062 2.925781 0.152344 1.84375 -0.558594 C 1.414062 -0.839844 1.308594 -1.519531 1.308594 -1.527344 C 1.304688 -1.597656 1.25 -1.648438 1.179688 -1.660156 C 1.117188 -1.667969 1.046875 -1.632812 1.015625 -1.574219 C 0.738281 -0.964844 0.253906 -0.1875 0.117188 -0.277344 C 0.105469 -0.277344 0.0820312 -0.300781 0.0664062 -0.339844 C -0.0078125 -0.535156 0.0195312 -0.746094 0.117188 -0.929688 C 0.339844 -1.386719 0.75 -1.714844 1.246094 -1.839844 C 1.296875 -1.851562 1.339844 -1.890625 1.355469 -1.945312 C 1.375 -1.996094 1.355469 -2.054688 1.320312 -2.097656 C 1.28125 -2.132812 1.226562 -2.148438 1.175781 -2.136719 C 0.585938 -1.996094 0.101562 -1.597656 -0.164062 -1.058594 C -0.304688 -0.792969 -0.324219 -0.476562 -0.210938 -0.199219 C -0.160156 -0.0664062 -0.03125 0.03125 0.117188 0.03125 L 0.125 0.03125 C 0.410156 0.0234375 0.769531 -0.335938 1.015625 -0.722656 C 1.046875 -0.769531 1.097656 -0.792969 1.152344 -0.785156 C 1.203125 -0.785156 1.25 -0.757812 1.273438 -0.710938 C 1.375 -0.546875 1.507812 -0.40625 1.671875 -0.304688 C 2.953125 0.546875 4.816406 -1.132812 4.898438 -1.203125 C 4.925781 -1.234375 4.945312 -1.273438 4.945312 -1.308594 C 4.949219 -1.351562 4.933594 -1.390625 4.910156 -1.421875 Z M 4.910156 -1.421875 "/></g></g></g><g fill="#d19c6c" fill-opacity="1"><g transform="translate(96.841758, 57.499379)"><g><path d="M 6.441406 -1.492188 C 6.378906 -1.542969 6.277344 -1.53125 6.226562 -1.46875 C 6.214844 -1.449219 4.902344 0.148438 3.699219 -0.550781 C 3.542969 -0.664062 3.417969 -0.816406 3.351562 -0.992188 C 3.242188 -1.214844 3.105469 -1.484375 2.730469 -1.425781 C 2.535156 -1.398438 2.238281 -1.152344 1.984375 -0.867188 C 1.972656 -0.851562 1.949219 -0.84375 1.933594 -0.851562 C 1.914062 -0.855469 1.898438 -0.867188 1.898438 -0.894531 C 1.851562 -1.15625 1.671875 -1.378906 1.425781 -1.484375 C 1.226562 -1.539062 0.90625 -1.597656 0.230469 -0.929688 C 0.195312 -0.898438 0.148438 -0.910156 0.152344 -0.957031 C 0.152344 -0.980469 0.269531 -1.457031 0.269531 -1.457031 C 0.289062 -1.539062 0.234375 -1.621094 0.152344 -1.644531 C 0.0703125 -1.660156 -0.0117188 -1.609375 -0.0351562 -1.527344 L -0.316406 -0.289062 C -0.335938 -0.21875 -0.300781 -0.148438 -0.234375 -0.113281 C -0.164062 -0.0820312 -0.0898438 -0.101562 -0.046875 -0.160156 C 0.738281 -1.144531 1.128906 -1.238281 1.285156 -1.214844 C 1.445312 -1.1875 1.65625 -0.867188 1.632812 -0.359375 C 1.632812 -0.289062 1.671875 -0.222656 1.746094 -0.207031 C 1.816406 -0.183594 1.886719 -0.210938 1.921875 -0.269531 C 2.160156 -0.679688 2.632812 -1.097656 2.777344 -1.121094 C 2.917969 -1.144531 2.960938 -1.09375 3.078125 -0.855469 C 3.164062 -0.621094 3.328125 -0.421875 3.542969 -0.289062 C 3.789062 -0.140625 4.070312 -0.0585938 4.355469 -0.0585938 C 5.480469 -0.0585938 6.417969 -1.210938 6.464844 -1.273438 C 6.519531 -1.339844 6.507812 -1.4375 6.441406 -1.492188 Z M 6.441406 -1.492188 "/></g></g></g><g fill="#d19c6c" fill-opacity="1"><g transform="translate(103.022294, 57.499379)"><g/></g></g><g fill="#d19c6c" fill-opacity="1"><g transform="translate(105.205733, 57.499379)"><g><path d="M 4.027344 -1.597656 C 3.96875 -1.65625 3.871094 -1.65625 3.8125 -1.589844 C 3.800781 -1.578125 2.207031 0.0234375 1.152344 -0.375 C 0.679688 -0.558594 0.480469 -1.105469 0.40625 -1.644531 C 0.511719 -1.902344 0.6875 -2.332031 0.851562 -2.8125 C 0.867188 -2.871094 0.886719 -2.878906 0.957031 -2.882812 C 1.75 -2.941406 2.535156 -2.972656 3 -2.972656 C 3.089844 -2.972656 3.152344 -3.042969 3.152344 -3.125 C 3.152344 -3.210938 3.089844 -3.277344 3 -3.277344 C 2.554688 -3.277344 1.820312 -3.242188 1.070312 -3.199219 C 1.039062 -3.195312 0.988281 -3.210938 1.027344 -3.316406 C 1.308594 -4.121094 1.507812 -4.9375 1.386719 -5.183594 C 1.261719 -5.433594 1.097656 -5.4375 1.015625 -5.421875 C 0.582031 -5.339844 0.265625 -4.210938 0.125 -3.289062 C 0.113281 -3.207031 0.0703125 -3.136719 -0.0078125 -3.128906 C -0.929688 -3.058594 -1.683594 -3.007812 -1.695312 -3.007812 C -1.785156 -3 -1.851562 -2.929688 -1.84375 -2.84375 C -1.84375 -2.761719 -1.773438 -2.691406 -1.683594 -2.695312 L -1.671875 -2.695312 C -1.65625 -2.695312 -0.945312 -2.75 -0.0585938 -2.8125 C -0.03125 -2.820312 0 -2.8125 0.0234375 -2.789062 C 0.046875 -2.773438 0.0664062 -2.742188 0.0664062 -2.714844 C -0.0234375 -1.316406 0.328125 -0.359375 1.039062 -0.0898438 C 1.191406 -0.0351562 1.351562 -0.0078125 1.515625 -0.0078125 C 2.679688 -0.0078125 3.96875 -1.316406 4.035156 -1.375 C 4.0625 -1.402344 4.074219 -1.445312 4.074219 -1.484375 C 4.074219 -1.527344 4.058594 -1.566406 4.027344 -1.597656 Z M 0.433594 -3.300781 C 0.570312 -4.191406 0.839844 -4.898438 1 -5.078125 C 1.015625 -5.089844 1.039062 -5.097656 1.0625 -5.089844 C 1.082031 -5.085938 1.097656 -5.074219 1.109375 -5.050781 C 1.179688 -4.898438 0.980469 -4.152344 0.679688 -3.265625 C 0.667969 -3.210938 0.628906 -3.171875 0.570312 -3.164062 C 0.539062 -3.160156 0.511719 -3.160156 0.476562 -3.160156 C 0.417969 -3.160156 0.429688 -3.253906 0.433594 -3.292969 Z M 0.363281 -2.378906 C 0.304688 -2.378906 0.328125 -2.789062 0.382812 -2.847656 C 0.429688 -2.878906 0.488281 -2.882812 0.535156 -2.855469 C 0.585938 -2.808594 0.429688 -2.378906 0.363281 -2.378906 Z M 0.363281 -2.378906 "/></g></g></g><g fill="#d19c6c" fill-opacity="1"><g transform="translate(108.956314, 57.499379)"><g><path d="M 5.0625 -1.542969 C 5.03125 -1.574219 4.996094 -1.589844 4.957031 -1.589844 C 4.914062 -1.589844 4.875 -1.574219 4.84375 -1.542969 C 3.828125 -0.550781 2.027344 -0.339844 1.636719 -0.570312 C 1.375 -0.722656 1.402344 -0.90625 1.589844 -1.269531 C 1.679688 -1.445312 1.78125 -1.648438 1.609375 -1.773438 C 1.449219 -1.890625 1.296875 -1.816406 1.164062 -1.746094 C 0.96875 -1.632812 0.75 -1.574219 0.523438 -1.574219 C 0.46875 -1.574219 0.421875 -1.667969 0.433594 -1.703125 C 0.761719 -2.425781 0.617188 -2.558594 0.5625 -2.613281 C 0.476562 -2.703125 0.339844 -2.695312 0.175781 -2.59375 C -0.09375 -2.402344 -0.210938 -2.054688 -0.117188 -1.730469 C -0.09375 -1.644531 -0.0546875 -1.5625 0.0078125 -1.492188 C 0 -1.425781 0.03125 -1.367188 0.0898438 -1.339844 C 0.125 -1.320312 0.164062 -1.320312 0.207031 -1.332031 C 0.304688 -1.285156 0.417969 -1.261719 0.527344 -1.261719 C 0.769531 -1.257812 1.003906 -1.308594 1.214844 -1.425781 C 1.296875 -1.46875 1.328125 -1.433594 1.316406 -1.410156 C 1.175781 -1.132812 0.921875 -0.628906 1.484375 -0.300781 C 1.683594 -0.207031 1.910156 -0.164062 2.132812 -0.183594 C 2.953125 -0.183594 4.246094 -0.535156 5.054688 -1.328125 C 5.085938 -1.351562 5.101562 -1.390625 5.101562 -1.433594 C 5.109375 -1.472656 5.089844 -1.515625 5.0625 -1.542969 Z M 0.171875 -1.867188 C 0.136719 -2.039062 0.195312 -2.214844 0.328125 -2.324219 C 0.289062 -2.167969 0.234375 -2.015625 0.171875 -1.863281 Z M 0.171875 -1.867188 "/></g></g></g><g fill="#d19c6c" fill-opacity="1"><g transform="translate(113.769268, 57.499379)"><g><path d="M 4.910156 -1.421875 C 4.851562 -1.484375 4.75 -1.492188 4.6875 -1.433594 C 4.667969 -1.414062 2.925781 0.152344 1.84375 -0.558594 C 1.414062 -0.839844 1.308594 -1.519531 1.308594 -1.527344 C 1.304688 -1.597656 1.25 -1.648438 1.179688 -1.660156 C 1.117188 -1.667969 1.046875 -1.632812 1.015625 -1.574219 C 0.738281 -0.964844 0.253906 -0.1875 0.117188 -0.277344 C 0.105469 -0.277344 0.0820312 -0.300781 0.0664062 -0.339844 C -0.0078125 -0.535156 0.0195312 -0.746094 0.117188 -0.929688 C 0.339844 -1.386719 0.75 -1.714844 1.246094 -1.839844 C 1.296875 -1.851562 1.339844 -1.890625 1.355469 -1.945312 C 1.375 -1.996094 1.355469 -2.054688 1.320312 -2.097656 C 1.28125 -2.132812 1.226562 -2.148438 1.175781 -2.136719 C 0.585938 -1.996094 0.101562 -1.597656 -0.164062 -1.058594 C -0.304688 -0.792969 -0.324219 -0.476562 -0.210938 -0.199219 C -0.160156 -0.0664062 -0.03125 0.03125 0.117188 0.03125 L 0.125 0.03125 C 0.410156 0.0234375 0.769531 -0.335938 1.015625 -0.722656 C 1.046875 -0.769531 1.097656 -0.792969 1.152344 -0.785156 C 1.203125 -0.785156 1.25 -0.757812 1.273438 -0.710938 C 1.375 -0.546875 1.507812 -0.40625 1.671875 -0.304688 C 2.953125 0.546875 4.816406 -1.132812 4.898438 -1.203125 C 4.925781 -1.234375 4.945312 -1.273438 4.945312 -1.308594 C 4.949219 -1.351562 4.933594 -1.390625 4.910156 -1.421875 Z M 4.910156 -1.421875 "/></g></g></g><g fill="#d19c6c" fill-opacity="1"><g transform="translate(118.51179, 57.499379)"><g><path d="M 5.132812 -1.460938 C 5.097656 -1.484375 5.0625 -1.503906 5.019531 -1.503906 C 4.980469 -1.496094 4.9375 -1.480469 4.914062 -1.449219 C 4.898438 -1.4375 3.605469 -0.0585938 2.484375 -0.511719 C 2.242188 -0.640625 2.050781 -0.832031 1.914062 -1.074219 C 1.867188 -1.152344 1.808594 -1.226562 1.738281 -1.296875 C 1.660156 -1.390625 1.542969 -1.445312 1.421875 -1.449219 C 1.121094 -1.472656 0.757812 -1.273438 0.324219 -0.863281 C 0.3125 -0.851562 0.292969 -0.84375 0.277344 -0.855469 C 0.257812 -0.863281 0.246094 -0.886719 0.253906 -0.90625 L 0.382812 -1.480469 C 0.40625 -1.5625 0.351562 -1.648438 0.269531 -1.667969 C 0.1875 -1.683594 0.105469 -1.632812 0.0820312 -1.550781 L -0.210938 -0.265625 C -0.230469 -0.195312 -0.195312 -0.125 -0.128906 -0.09375 C -0.0664062 -0.0585938 0.0117188 -0.078125 0.0585938 -0.128906 C 0.84375 -1.050781 1.246094 -1.140625 1.386719 -1.144531 C 1.527344 -1.152344 1.613281 -0.96875 1.660156 -0.898438 C 1.828125 -0.609375 2.074219 -0.375 2.367188 -0.230469 C 3.683594 0.304688 5.078125 -1.179688 5.136719 -1.246094 C 5.195312 -1.304688 5.191406 -1.402344 5.132812 -1.460938 Z M 5.132812 -1.460938 "/></g></g></g><g fill="#d19c6c" fill-opacity="1"><g transform="translate(123.401047, 57.499379)"><g><path d="M 4.085938 -1.542969 C 4.023438 -1.601562 3.921875 -1.597656 3.871094 -1.53125 C 3.40625 -1.050781 2.65625 -1.003906 2.136719 -1.421875 C 2.015625 -1.507812 1.84375 -1.503906 1.730469 -1.398438 C 1.667969 -1.339844 1.597656 -1.273438 1.527344 -1.199219 C 1.304688 -0.945312 1.261719 -1.15625 1.261719 -1.296875 C 1.261719 -1.421875 1.238281 -1.550781 1.199219 -1.667969 C 1.175781 -1.726562 1.117188 -1.769531 1.050781 -1.769531 C 0.988281 -1.761719 0.933594 -1.726562 0.910156 -1.660156 C 0.746094 -1.203125 0.394531 -0.535156 0.148438 -0.488281 C 0.128906 -0.480469 0.0820312 -0.476562 0.0117188 -0.550781 C -0.0234375 -0.703125 0 -0.867188 0.078125 -1.011719 C 0.253906 -1.484375 0.6875 -1.820312 1.191406 -1.867188 C 1.28125 -1.875 1.34375 -1.949219 1.339844 -2.03125 C 1.332031 -2.121094 1.257812 -2.183594 1.175781 -2.179688 C 0.546875 -2.121094 0.0078125 -1.707031 -0.21875 -1.117188 C -0.316406 -0.855469 -0.375 -0.515625 -0.21875 -0.347656 C -0.113281 -0.21875 0.046875 -0.160156 0.207031 -0.1875 C 0.5 -0.246094 0.761719 -0.632812 0.953125 -0.988281 C 0.941406 -0.84375 0.921875 -0.6875 0.898438 -0.523438 C 0.894531 -0.488281 0.882812 -0.457031 0.863281 -0.433594 C 0.175781 0.433594 -0.445312 1.484375 -0.457031 2.148438 C -0.476562 2.324219 -0.410156 2.5 -0.292969 2.632812 C -0.234375 2.691406 -0.164062 2.71875 -0.0898438 2.71875 C -0.0234375 2.71875 0.0429688 2.703125 0.09375 2.667969 C 0.480469 2.40625 0.976562 0.898438 1.167969 -0.300781 C 1.175781 -0.324219 1.1875 -0.347656 1.203125 -0.371094 C 1.410156 -0.621094 1.625 -0.863281 1.855469 -1.09375 C 1.910156 -1.144531 1.992188 -1.152344 2.050781 -1.109375 C 2.695312 -0.675781 3.554688 -0.769531 4.09375 -1.328125 C 4.144531 -1.390625 4.144531 -1.484375 4.085938 -1.542969 Z M 0.175781 2.042969 C 0.0429688 2.3125 -0.0078125 2.429688 -0.078125 2.40625 C -0.148438 2.390625 -0.152344 2.273438 -0.148438 2.15625 C -0.136719 1.703125 0.652344 0.171875 0.761719 0.21875 C 0.875 0.265625 0.398438 1.578125 0.175781 2.042969 Z M 0.175781 2.042969 "/></g></g></g></svg>